<svg enable-background="new 0 0 97.2 97.2" viewBox="0 0 97.2 97.2" xmlns="http://www.w3.org/2000/svg"><g fill="#fff"><path d="m97.2 71.5-3.5-10.9c2.7-4.8 3.9-10.4 3.1-16.2-2-14.2-15-24.1-29.2-22.2-.4.1-.8.1-1.2.2-6.9-8.4-17.3-13.7-28.9-13.7h-.1c-10 0-19.4 3.9-26.4 11s-10.9 16.5-10.9 26.5c0 7.7 2.3 15 6.7 21.3l-2.4 13.8c-.3 1.5.2 3.1 1.1 4.2 1 1.2 2.4 1.9 4 1.9.5 0 .9-.1 1.4-.2l17.5-4.8c3 .8 6 1.1 9.1 1.1h.1c9.9 0 19.2-3.9 26.2-10.8 3.4 1 7.1 1.3 10.9.8 2.4-.3 4.7-1 6.9-2l14.1 1.8c1 .3 1.9-.7 1.5-1.8zm-37.3-.2c-5.9 5.3-13.7 8.5-22.3 8.5h-.1c-3.2 0-6.2-.4-9.1-1.3l-18.4 5c-.1 0-.3 0-.4 0-.9 0-1.6-.8-1.4-1.7l2.6-15.4c-4.3-5.7-6.9-12.7-6.9-20.4-.1-18.6 15-33.7 33.6-33.8h.1c9.9 0 18.8 4.2 24.9 11 5.4 6 8.7 13.9 8.8 22.6-.1 10.3-4.5 19.3-11.4 25.5z"/><path d="m18 38.1h38.9c1 0 1.9-.8 1.9-1.9s-.8-1.9-1.9-1.9h-38.9c-1 0-1.9.8-1.9 1.9s.9 1.9 1.9 1.9z"/><path d="m56.9 46.2h-38.9c-1 0-1.9.8-1.9 1.9s.8 1.9 1.9 1.9h38.9c1 0 1.9-.8 1.9-1.9s-.8-1.9-1.9-1.9z"/><path d="m36.9 58h-18.9c-1 0-1.9.8-1.9 1.9s.8 1.9 1.9 1.9h18.9c1 0 1.9-.8 1.9-1.9s-.8-1.9-1.9-1.9z"/></g></svg>